# xmcd CD database file
#
# Track frame offsets:
#	225
#	19648
#	41928
#	59063
#	77541
#	96043
#	117321
#	136006
#	158278
#	174786
#	188986
#	206080
#	224528
#	245082
#
# Disc length: 3460 seconds
#
# Revision: 0
# Processed by: cddbd v1.5.1PL0 Copyright (c) Steve Scherf et al.
# Submitted via: CDex 1.51
#
DISCID=be0d810e
DTITLE=Steve Miller Band - Steve Miller Band
DYEAR=2001
DGENRE=Blues
TTITLE0=Super shuffle
TTITLE1=Your old lady
TTITLE2=Mercury blues
TTITLE3=Goin' to Mexico
TTITLE4=I got love and you want it
TTITLE5=Mojo (Got my moyo working)
TTITLE6=Think (Sing)
TTITLE7=The blues with a feelin'
TTITLE8=Fannie Mae
TTITLE9=Another shuffle
TTITLE10=I wrote my babe a letter
TTITLE11=Baby I don't know why I love you
TTITLE12=I want her back
TTITLE13=Medley: Super shuffle, Your old lady and Another blues shuffle
EXTD=YEAR: 2001
EXTT0=
EXTT1=
EXTT2=
EXTT3=
EXTT4=
EXTT5=
EXTT6=
EXTT7=
EXTT8=
EXTT9=
EXTT10=
EXTT11=
EXTT12=
EXTT13=
PLAYORDER=
